<svg width="673" height="167" viewBox="0 0 673 167" fill="none" xmlns="http://www.w3.org/2000/svg">
<path d="M61.405 11L61.4028 128.996M630.998 129.01L60.9978 129" stroke="#4D4D4D"/>
<path d="M35.1133 130.968C34.5453 131.76 33.7493 132.156 32.7253 132.156C31.7013 132.156 30.9053 131.76 30.3373 130.968C29.7693 130.176 29.4853 129.12 29.4853 127.8C29.4853 126.48 29.7693 125.424 30.3373 124.632C30.9053 123.84 31.7013 123.444 32.7253 123.444C33.7493 123.444 34.5453 123.84 35.1133 124.632C35.6813 125.424 35.9653 126.48 35.9653 127.8C35.9653 129.12 35.6813 130.176 35.1133 130.968ZM31.1533 130.212C31.5213 130.78 32.0453 131.064 32.7253 131.064C33.4053 131.064 33.9293 130.78 34.2973 130.212C34.6733 129.644 34.8613 128.84 34.8613 127.8C34.8613 126.76 34.6733 125.956 34.2973 125.388C33.9293 124.812 33.4053 124.524 32.7253 124.524C32.0453 124.524 31.5213 124.808 31.1533 125.376C30.7853 125.944 30.6013 126.752 30.6013 127.8C30.6013 128.84 30.7853 129.644 31.1533 130.212ZM38.8255 127.164C38.2815 127.164 37.8295 126.984 37.4695 126.624C37.1095 126.264 36.9295 125.824 36.9295 125.304C36.9295 124.792 37.1095 124.356 37.4695 123.996C37.8375 123.628 38.2895 123.444 38.8255 123.444C39.3695 123.444 39.8215 123.624 40.1815 123.984C40.5415 124.344 40.7215 124.784 40.7215 125.304C40.7215 125.824 40.5415 126.264 40.1815 126.624C39.8295 126.984 39.3775 127.164 38.8255 127.164ZM38.1295 126.012C38.3135 126.196 38.5455 126.288 38.8255 126.288C39.1055 126.288 39.3335 126.192 39.5095 126C39.6935 125.808 39.7855 125.576 39.7855 125.304C39.7855 125.032 39.6935 124.804 39.5095 124.62C39.3335 124.428 39.1055 124.332 38.8255 124.332C38.5455 124.332 38.3135 124.428 38.1295 124.62C37.9535 124.804 37.8655 125.032 37.8655 125.304C37.8655 125.584 37.9535 125.82 38.1295 126.012ZM37.4935 130.812L43.0735 124.572L43.6615 124.896L38.0695 131.148L37.4935 130.812ZM43.8055 131.604C43.4455 131.964 42.9935 132.144 42.4495 132.144C41.9055 132.144 41.4535 131.964 41.0935 131.604C40.7335 131.244 40.5535 130.804 40.5535 130.284C40.5535 129.764 40.7335 129.324 41.0935 128.964C41.4535 128.604 41.9055 128.424 42.4495 128.424C42.9935 128.424 43.4455 128.604 43.8055 128.964C44.1655 129.324 44.3455 129.764 44.3455 130.284C44.3455 130.804 44.1655 131.244 43.8055 131.604ZM41.7535 130.98C41.9375 131.164 42.1695 131.256 42.4495 131.256C42.7295 131.256 42.9575 131.164 43.1335 130.98C43.3175 130.788 43.4095 130.556 43.4095 130.284C43.4095 130.012 43.3175 129.784 43.1335 129.6C42.9575 129.408 42.7295 129.312 42.4495 129.312C42.1695 129.312 41.9375 129.408 41.7535 129.6C41.5775 129.784 41.4895 130.012 41.4895 130.284C41.4895 130.556 41.5775 130.788 41.7535 130.98Z" fill="#979797"/>
<path d="M23.1664 73V72.088L26.1304 69.064C26.9224 68.272 27.3184 67.592 27.3184 67.024C27.3184 66.552 27.1744 66.184 26.8864 65.92C26.5984 65.656 26.2464 65.524 25.8304 65.524C25.0384 65.524 24.4624 65.9 24.1024 66.652L23.1664 66.1C23.4304 65.556 23.7944 65.144 24.2584 64.864C24.7304 64.584 25.2504 64.444 25.8184 64.444C26.5224 64.444 27.1344 64.676 27.6544 65.14C28.1744 65.604 28.4344 66.228 28.4344 67.012C28.4344 67.86 27.9344 68.784 26.9344 69.784L24.7864 71.92H28.5904V73H23.1664ZM35.1133 71.968C34.5453 72.76 33.7493 73.156 32.7253 73.156C31.7013 73.156 30.9053 72.76 30.3373 71.968C29.7693 71.176 29.4853 70.12 29.4853 68.8C29.4853 67.48 29.7693 66.424 30.3373 65.632C30.9053 64.84 31.7013 64.444 32.7253 64.444C33.7493 64.444 34.5453 64.84 35.1133 65.632C35.6813 66.424 35.9653 67.48 35.9653 68.8C35.9653 70.12 35.6813 71.176 35.1133 71.968ZM31.1533 71.212C31.5213 71.78 32.0453 72.064 32.7253 72.064C33.4053 72.064 33.9293 71.78 34.2973 71.212C34.6733 70.644 34.8613 69.84 34.8613 68.8C34.8613 67.76 34.6733 66.956 34.2973 66.388C33.9293 65.812 33.4053 65.524 32.7253 65.524C32.0453 65.524 31.5213 65.808 31.1533 66.376C30.7853 66.944 30.6013 67.752 30.6013 68.8C30.6013 69.84 30.7853 70.644 31.1533 71.212ZM38.8255 68.164C38.2815 68.164 37.8295 67.984 37.4695 67.624C37.1095 67.264 36.9295 66.824 36.9295 66.304C36.9295 65.792 37.1095 65.356 37.4695 64.996C37.8375 64.628 38.2895 64.444 38.8255 64.444C39.3695 64.444 39.8215 64.624 40.1815 64.984C40.5415 65.344 40.7215 65.784 40.7215 66.304C40.7215 66.824 40.5415 67.264 40.1815 67.624C39.8295 67.984 39.3775 68.164 38.8255 68.164ZM38.1295 67.012C38.3135 67.196 38.5455 67.288 38.8255 67.288C39.1055 67.288 39.3335 67.192 39.5095 67C39.6935 66.808 39.7855 66.576 39.7855 66.304C39.7855 66.032 39.6935 65.804 39.5095 65.62C39.3335 65.428 39.1055 65.332 38.8255 65.332C38.5455 65.332 38.3135 65.428 38.1295 65.62C37.9535 65.804 37.8655 66.032 37.8655 66.304C37.8655 66.584 37.9535 66.82 38.1295 67.012ZM37.4935 71.812L43.0735 65.572L43.6615 65.896L38.0695 72.148L37.4935 71.812ZM43.8055 72.604C43.4455 72.964 42.9935 73.144 42.4495 73.144C41.9055 73.144 41.4535 72.964 41.0935 72.604C40.7335 72.244 40.5535 71.804 40.5535 71.284C40.5535 70.764 40.7335 70.324 41.0935 69.964C41.4535 69.604 41.9055 69.424 42.4495 69.424C42.9935 69.424 43.4455 69.604 43.8055 69.964C44.1655 70.324 44.3455 70.764 44.3455 71.284C44.3455 71.804 44.1655 72.244 43.8055 72.604ZM41.7535 71.98C41.9375 72.164 42.1695 72.256 42.4495 72.256C42.7295 72.256 42.9575 72.164 43.1335 71.98C43.3175 71.788 43.4095 71.556 43.4095 71.284C43.4095 71.012 43.3175 70.784 43.1335 70.6C42.9575 70.408 42.7295 70.312 42.4495 70.312C42.1695 70.312 41.9375 70.408 41.7535 70.6C41.5775 70.784 41.4895 71.012 41.4895 71.284C41.4895 71.556 41.5775 71.788 41.7535 71.98Z" fill="#979797"/>
<path d="M28.6924 12.36V13.404H27.6724V15H26.5564V13.404H22.2724V12.36L25.2844 6.6H26.4844L23.4724 12.36H26.5564V9.984H27.6724V12.36H28.6924ZM35.1133 13.968C34.5453 14.76 33.7493 15.156 32.7253 15.156C31.7013 15.156 30.9053 14.76 30.3373 13.968C29.7693 13.176 29.4853 12.12 29.4853 10.8C29.4853 9.48 29.7693 8.424 30.3373 7.632C30.9053 6.84 31.7013 6.444 32.7253 6.444C33.7493 6.444 34.5453 6.84 35.1133 7.632C35.6813 8.424 35.9653 9.48 35.9653 10.8C35.9653 12.12 35.6813 13.176 35.1133 13.968ZM31.1533 13.212C31.5213 13.78 32.0453 14.064 32.7253 14.064C33.4053 14.064 33.9293 13.78 34.2973 13.212C34.6733 12.644 34.8613 11.84 34.8613 10.8C34.8613 9.76 34.6733 8.956 34.2973 8.388C33.9293 7.812 33.4053 7.524 32.7253 7.524C32.0453 7.524 31.5213 7.808 31.1533 8.376C30.7853 8.944 30.6013 9.752 30.6013 10.8C30.6013 11.84 30.7853 12.644 31.1533 13.212ZM38.8255 10.164C38.2815 10.164 37.8295 9.984 37.4695 9.624C37.1095 9.264 36.9295 8.824 36.9295 8.304C36.9295 7.792 37.1095 7.356 37.4695 6.996C37.8375 6.628 38.2895 6.444 38.8255 6.444C39.3695 6.444 39.8215 6.624 40.1815 6.984C40.5415 7.344 40.7215 7.784 40.7215 8.304C40.7215 8.824 40.5415 9.264 40.1815 9.624C39.8295 9.984 39.3775 10.164 38.8255 10.164ZM38.1295 9.012C38.3135 9.196 38.5455 9.288 38.8255 9.288C39.1055 9.288 39.3335 9.192 39.5095 9C39.6935 8.808 39.7855 8.576 39.7855 8.304C39.7855 8.032 39.6935 7.804 39.5095 7.62C39.3335 7.428 39.1055 7.332 38.8255 7.332C38.5455 7.332 38.3135 7.428 38.1295 7.62C37.9535 7.804 37.8655 8.032 37.8655 8.304C37.8655 8.584 37.9535 8.82 38.1295 9.012ZM37.4935 13.812L43.0735 7.572L43.6615 7.896L38.0695 14.148L37.4935 13.812ZM43.8055 14.604C43.4455 14.964 42.9935 15.144 42.4495 15.144C41.9055 15.144 41.4535 14.964 41.0935 14.604C40.7335 14.244 40.5535 13.804 40.5535 13.284C40.5535 12.764 40.7335 12.324 41.0935 11.964C41.4535 11.604 41.9055 11.424 42.4495 11.424C42.9935 11.424 43.4455 11.604 43.8055 11.964C44.1655 12.324 44.3455 12.764 44.3455 13.284C44.3455 13.804 44.1655 14.244 43.8055 14.604ZM41.7535 13.98C41.9375 14.164 42.1695 14.256 42.4495 14.256C42.7295 14.256 42.9575 14.164 43.1335 13.98C43.3175 13.788 43.4095 13.556 43.4095 13.284C43.4095 13.012 43.3175 12.784 43.1335 12.6C42.9575 12.408 42.7295 12.312 42.4495 12.312C42.1695 12.312 41.9375 12.408 41.7535 12.6C41.5775 12.784 41.4895 13.012 41.4895 13.284C41.4895 13.556 41.5775 13.788 41.7535 13.98Z" fill="#979797"/>
<path d="M53.8422 11H672.68" stroke="#4D4D4D"/>
<path d="M56.2475 69.7026H667.789" stroke="#4D4D4D"/>
<path d="M89.71 144.189V145.317L85.942 146.865L89.71 148.401V149.529L84.754 147.369V146.349L89.71 144.189ZM95.7513 142.665H96.7113V151.065H95.6073V143.865L93.8193 144.393L93.5433 143.433L95.7513 142.665ZM102.549 146.721C102.957 146.929 103.277 147.209 103.509 147.561C103.741 147.913 103.857 148.313 103.857 148.761C103.857 149.529 103.589 150.133 103.053 150.573C102.517 151.005 101.825 151.221 100.977 151.221C100.137 151.221 99.4486 151.005 98.9126 150.573C98.3766 150.133 98.1086 149.529 98.1086 148.761C98.1086 148.313 98.2246 147.913 98.4566 147.561C98.6886 147.209 99.0086 146.929 99.4166 146.721C98.7286 146.289 98.3846 145.677 98.3846 144.885C98.3846 144.125 98.6366 143.541 99.1406 143.133C99.6526 142.717 100.265 142.509 100.977 142.509C101.697 142.509 102.309 142.717 102.813 143.133C103.325 143.541 103.581 144.125 103.581 144.885C103.581 145.677 103.237 146.289 102.549 146.721ZM100.977 143.577C100.553 143.577 100.197 143.689 99.9086 143.913C99.6286 144.137 99.4886 144.469 99.4886 144.909C99.4886 145.333 99.6326 145.665 99.9206 145.905C100.209 146.137 100.561 146.253 100.977 146.253C101.393 146.253 101.745 146.137 102.033 145.905C102.321 145.665 102.465 145.333 102.465 144.909C102.465 144.469 102.325 144.137 102.045 143.913C101.765 143.689 101.409 143.577 100.977 143.577ZM100.977 150.153C101.513 150.153 101.941 150.029 102.261 149.781C102.589 149.525 102.753 149.161 102.753 148.689C102.753 148.225 102.589 147.869 102.261 147.621C101.941 147.365 101.513 147.237 100.977 147.237C100.449 147.237 100.021 147.365 99.6926 147.621C99.3726 147.869 99.2126 148.225 99.2126 148.689C99.2126 149.161 99.3726 149.525 99.6926 149.781C100.021 150.029 100.449 150.153 100.977 150.153Z" fill="#979797"/>
<rect x="75.675" y="126.536" width="21.5272" height="1.63499" fill="#E786D7"/>
<rect x="97.2022" y="126.536" width="21.5272" height="1.63499" fill="#7F7FD5"/>
<path d="M166.31 143.869H167.27V152.269H166.166V145.069L164.378 145.597L164.102 144.637L166.31 143.869ZM173.107 147.925C173.515 148.133 173.835 148.413 174.067 148.765C174.299 149.117 174.415 149.517 174.415 149.965C174.415 150.733 174.147 151.337 173.611 151.777C173.075 152.209 172.383 152.425 171.535 152.425C170.695 152.425 170.007 152.209 169.471 151.777C168.935 151.337 168.667 150.733 168.667 149.965C168.667 149.517 168.783 149.117 169.015 148.765C169.247 148.413 169.567 148.133 169.975 147.925C169.287 147.493 168.943 146.881 168.943 146.089C168.943 145.329 169.195 144.745 169.699 144.337C170.211 143.921 170.823 143.713 171.535 143.713C172.255 143.713 172.867 143.921 173.371 144.337C173.883 144.745 174.139 145.329 174.139 146.089C174.139 146.881 173.795 147.493 173.107 147.925ZM171.535 144.781C171.111 144.781 170.755 144.893 170.467 145.117C170.187 145.341 170.047 145.673 170.047 146.113C170.047 146.537 170.191 146.869 170.479 147.109C170.767 147.341 171.119 147.457 171.535 147.457C171.951 147.457 172.303 147.341 172.591 147.109C172.879 146.869 173.023 146.537 173.023 146.113C173.023 145.673 172.883 145.341 172.603 145.117C172.323 144.893 171.967 144.781 171.535 144.781ZM171.535 151.357C172.071 151.357 172.499 151.233 172.819 150.985C173.147 150.729 173.311 150.365 173.311 149.893C173.311 149.429 173.147 149.073 172.819 148.825C172.499 148.569 172.071 148.441 171.535 148.441C171.007 148.441 170.579 148.569 170.251 148.825C169.931 149.073 169.771 149.429 169.771 149.893C169.771 150.365 169.931 150.729 170.251 150.985C170.579 151.233 171.007 151.357 171.535 151.357ZM175.767 149.089V148.081H180.147V149.089H175.767ZM181.475 152.269V151.357L184.439 148.333C185.231 147.541 185.627 146.861 185.627 146.293C185.627 145.821 185.483 145.453 185.195 145.189C184.907 144.925 184.555 144.793 184.139 144.793C183.347 144.793 182.771 145.169 182.411 145.921L181.475 145.369C181.739 144.825 182.103 144.413 182.567 144.133C183.039 143.853 183.559 143.713 184.127 143.713C184.831 143.713 185.443 143.945 185.963 144.409C186.483 144.873 186.743 145.497 186.743 146.281C186.743 147.129 186.243 148.053 185.243 149.053L183.095 151.189H186.899V152.269H181.475ZM189.689 143.869H190.649V152.269H189.545V145.069L187.757 145.597L187.481 144.637L189.689 143.869Z" fill="#979797"/>
<rect x="156.236" y="127.61" width="21.5272" height="1.63499" fill="#E786D7"/>
<path d="M177.763 75.5376C177.763 72.7762 180.001 70.5376 182.763 70.5376H194.29C197.051 70.5376 199.29 72.7762 199.29 75.5376V129.245H177.763V75.5376Z" fill="#7F7FD5"/>
<path d="M232.854 151.139V150.227L235.818 147.203C236.61 146.411 237.006 145.731 237.006 145.163C237.006 144.691 236.862 144.323 236.574 144.059C236.286 143.795 235.934 143.663 235.518 143.663C234.726 143.663 234.15 144.039 233.79 144.791L232.854 144.239C233.118 143.695 233.482 143.283 233.946 143.003C234.418 142.723 234.938 142.583 235.506 142.583C236.21 142.583 236.822 142.815 237.342 143.279C237.862 143.743 238.122 144.367 238.122 145.151C238.122 145.999 237.622 146.923 236.622 147.923L234.474 150.059H238.278V151.139H232.854ZM241.067 142.739H242.027V151.139H240.923V143.939L239.135 144.467L238.859 143.507L241.067 142.739ZM243.868 147.959V146.951H248.248V147.959H243.868ZM249.576 151.139V150.227L252.54 147.203C253.332 146.411 253.728 145.731 253.728 145.163C253.728 144.691 253.584 144.323 253.296 144.059C253.008 143.795 252.656 143.663 252.24 143.663C251.448 143.663 250.872 144.039 250.512 144.791L249.576 144.239C249.84 143.695 250.204 143.283 250.668 143.003C251.14 142.723 251.66 142.583 252.228 142.583C252.932 142.583 253.544 142.815 254.064 143.279C254.584 143.743 254.844 144.367 254.844 145.151C254.844 145.999 254.344 146.923 253.344 147.923L251.196 150.059H255V151.139H249.576ZM261.969 148.499V149.543H260.949V151.139H259.833V149.543H255.549V148.499L258.561 142.739H259.761L256.749 148.499H259.833V146.123H260.949V148.499H261.969Z" fill="#979797"/>
<rect x="225.796" y="126.162" width="21.5272" height="1.63499" fill="#E786D7"/>
<path d="M247.323 74.5376C247.323 71.7762 249.561 69.5376 252.323 69.5376H263.85C266.611 69.5376 268.85 71.7762 268.85 74.5376V127.796H247.323V74.5376Z" fill="#7F7FD5"/>
<path d="M311.699 151.74V150.828L314.663 147.804C315.455 147.012 315.851 146.332 315.851 145.764C315.851 145.292 315.707 144.924 315.419 144.66C315.131 144.396 314.779 144.264 314.363 144.264C313.571 144.264 312.995 144.64 312.635 145.392L311.699 144.84C311.963 144.296 312.327 143.884 312.791 143.604C313.263 143.324 313.783 143.184 314.351 143.184C315.055 143.184 315.667 143.416 316.187 143.88C316.707 144.344 316.967 144.968 316.967 145.752C316.967 146.6 316.467 147.524 315.467 148.524L313.319 150.66H317.123V151.74H311.699ZM324.093 149.1V150.144H323.073V151.74H321.957V150.144H317.673V149.1L320.685 143.34H321.885L318.873 149.1H321.957V146.724H323.073V149.1H324.093ZM325.245 148.56V147.552H329.625V148.56H325.245ZM330.953 151.74V150.828L333.917 147.804C334.709 147.012 335.105 146.332 335.105 145.764C335.105 145.292 334.961 144.924 334.673 144.66C334.385 144.396 334.033 144.264 333.617 144.264C332.825 144.264 332.249 144.64 331.889 145.392L330.953 144.84C331.217 144.296 331.581 143.884 332.045 143.604C332.517 143.324 333.037 143.184 333.605 143.184C334.309 143.184 334.921 143.416 335.441 143.88C335.961 144.344 336.221 144.968 336.221 145.752C336.221 146.6 335.721 147.524 334.721 148.524L332.573 150.66H336.377V151.74H330.953ZM336.831 143.34H342.075V144.336L339.015 151.74H337.851L340.887 144.396H336.831V143.34Z" fill="#979797"/>
<path d="M305.356 33.5388C305.356 30.7773 307.595 28.5388 310.356 28.5388H321.883C324.645 28.5388 326.883 30.7773 326.883 33.5388V128.715H305.356V33.5388Z" fill="#E786D7"/>
<path d="M326.887 74.5376C326.887 71.7762 329.126 69.5376 331.887 69.5376H343.894C346.655 69.5376 348.894 71.7762 348.894 74.5376V128.536H326.887V74.5376Z" fill="#7F7FD5"/>
<path d="M380.99 151.139V150.227L383.954 147.203C384.746 146.411 385.142 145.731 385.142 145.163C385.142 144.691 384.998 144.323 384.71 144.059C384.422 143.795 384.07 143.663 383.654 143.663C382.862 143.663 382.286 144.039 381.926 144.791L380.99 144.239C381.254 143.695 381.618 143.283 382.082 143.003C382.554 142.723 383.074 142.583 383.642 142.583C384.346 142.583 384.958 142.815 385.478 143.279C385.998 143.743 386.258 144.367 386.258 145.151C386.258 145.999 385.758 146.923 384.758 147.923L382.61 150.059H386.414V151.139H380.99ZM386.868 142.739H392.112V143.735L389.052 151.139H387.888L390.924 143.795H386.868V142.739ZM393.071 147.959V146.951H397.451V147.959H393.071ZM402.139 146.183C402.779 146.303 403.303 146.579 403.711 147.011C404.119 147.443 404.323 147.991 404.323 148.655C404.323 149.471 404.043 150.115 403.483 150.587C402.923 151.059 402.243 151.295 401.443 151.295C400.803 151.295 400.235 151.151 399.739 150.863C399.243 150.567 398.891 150.143 398.683 149.591L399.619 149.039C399.867 149.815 400.475 150.203 401.443 150.203C401.963 150.203 402.387 150.067 402.715 149.795C403.043 149.523 403.207 149.143 403.207 148.655C403.207 148.167 403.043 147.787 402.715 147.515C402.387 147.235 401.963 147.095 401.443 147.095H401.155L400.711 146.411L402.655 143.783H398.923V142.739H403.963V143.723L402.139 146.183ZM410.937 150.107C410.369 150.899 409.573 151.295 408.549 151.295C407.525 151.295 406.729 150.899 406.161 150.107C405.593 149.315 405.309 148.259 405.309 146.939C405.309 145.619 405.593 144.563 406.161 143.771C406.729 142.979 407.525 142.583 408.549 142.583C409.573 142.583 410.369 142.979 410.937 143.771C411.505 144.563 411.789 145.619 411.789 146.939C411.789 148.259 411.505 149.315 410.937 150.107ZM406.977 149.351C407.345 149.919 407.869 150.203 408.549 150.203C409.229 150.203 409.753 149.919 410.121 149.351C410.497 148.783 410.685 147.979 410.685 146.939C410.685 145.899 410.497 145.095 410.121 144.527C409.753 143.951 409.229 143.663 408.549 143.663C407.869 143.663 407.345 143.947 406.977 144.515C406.609 145.083 406.425 145.891 406.425 146.939C406.425 147.979 406.609 148.783 406.977 149.351Z" fill="#979797"/>
<path d="M374.916 74.5376C374.916 71.7762 377.155 69.5376 379.916 69.5376H391.444C394.205 69.5376 396.444 71.7762 396.444 74.5376V128.245H374.916V74.5376Z" fill="#E786D7"/>
<rect x="396.443" y="125.792" width="21.5272" height="1.63499" fill="#7F7FD5"/>
<path d="M464.277 146.109C464.917 146.229 465.441 146.505 465.849 146.937C466.257 147.369 466.461 147.917 466.461 148.581C466.461 149.397 466.181 150.041 465.621 150.513C465.061 150.985 464.381 151.221 463.581 151.221C462.941 151.221 462.373 151.077 461.877 150.789C461.381 150.493 461.029 150.069 460.821 149.517L461.757 148.965C462.005 149.741 462.613 150.129 463.581 150.129C464.101 150.129 464.525 149.993 464.853 149.721C465.181 149.449 465.345 149.069 465.345 148.581C465.345 148.093 465.181 147.713 464.853 147.441C464.525 147.161 464.101 147.021 463.581 147.021H463.293L462.849 146.337L464.793 143.709H461.061V142.665H466.101V143.649L464.277 146.109ZM473.075 150.033C472.507 150.825 471.711 151.221 470.687 151.221C469.663 151.221 468.867 150.825 468.299 150.033C467.731 149.241 467.447 148.185 467.447 146.865C467.447 145.545 467.731 144.489 468.299 143.697C468.867 142.905 469.663 142.509 470.687 142.509C471.711 142.509 472.507 142.905 473.075 143.697C473.643 144.489 473.927 145.545 473.927 146.865C473.927 148.185 473.643 149.241 473.075 150.033ZM469.115 149.277C469.483 149.845 470.007 150.129 470.687 150.129C471.367 150.129 471.891 149.845 472.259 149.277C472.635 148.709 472.823 147.905 472.823 146.865C472.823 145.825 472.635 145.021 472.259 144.453C471.891 143.877 471.367 143.589 470.687 143.589C470.007 143.589 469.483 143.873 469.115 144.441C468.747 145.009 468.563 145.817 468.563 146.865C468.563 147.905 468.747 148.709 469.115 149.277ZM475.366 147.885V146.877H479.746V147.885H475.366ZM484.434 146.109C485.074 146.229 485.598 146.505 486.006 146.937C486.414 147.369 486.618 147.917 486.618 148.581C486.618 149.397 486.338 150.041 485.778 150.513C485.218 150.985 484.538 151.221 483.738 151.221C483.098 151.221 482.53 151.077 482.034 150.789C481.538 150.493 481.186 150.069 480.978 149.517L481.914 148.965C482.162 149.741 482.77 150.129 483.738 150.129C484.258 150.129 484.682 149.993 485.01 149.721C485.338 149.449 485.502 149.069 485.502 148.581C485.502 148.093 485.338 147.713 485.01 147.441C484.682 147.161 484.258 147.021 483.738 147.021H483.45L483.006 146.337L484.95 143.709H481.218V142.665H486.258V143.649L484.434 146.109ZM490.245 145.941C491.037 145.941 491.705 146.177 492.249 146.649C492.801 147.113 493.077 147.757 493.077 148.581C493.077 149.397 492.797 150.041 492.237 150.513C491.677 150.985 490.997 151.221 490.197 151.221C489.557 151.221 488.985 151.069 488.481 150.765C487.977 150.453 487.625 150.005 487.425 149.421L488.373 148.881C488.485 149.289 488.701 149.601 489.021 149.817C489.341 150.025 489.733 150.129 490.197 150.129C490.725 150.129 491.153 149.993 491.481 149.721C491.809 149.449 491.973 149.069 491.973 148.581C491.973 148.093 491.809 147.713 491.481 147.441C491.153 147.161 490.733 147.021 490.221 147.021H487.845L488.157 142.665H492.753V143.709H489.165L489.021 145.941H490.245Z" fill="#979797"/>
<rect x="455.477" y="126.536" width="21.5272" height="1.63499" fill="#E786D7"/>
<rect x="477.004" y="126.536" width="21.5272" height="1.63499" fill="#7F7FD5"/>
<path d="M537.026 146.348C537.666 146.468 538.19 146.744 538.598 147.176C539.006 147.608 539.21 148.156 539.21 148.82C539.21 149.636 538.93 150.28 538.37 150.752C537.81 151.224 537.13 151.46 536.33 151.46C535.69 151.46 535.122 151.316 534.626 151.028C534.13 150.732 533.778 150.308 533.57 149.756L534.506 149.204C534.754 149.98 535.362 150.368 536.33 150.368C536.85 150.368 537.274 150.232 537.602 149.96C537.93 149.688 538.094 149.308 538.094 148.82C538.094 148.332 537.93 147.952 537.602 147.68C537.274 147.4 536.85 147.26 536.33 147.26H536.042L535.598 146.576L537.542 143.948H533.81V142.904H538.85V143.888L537.026 146.348ZM542.837 146.18C543.629 146.18 544.297 146.416 544.841 146.888C545.393 147.352 545.669 147.996 545.669 148.82C545.669 149.636 545.389 150.28 544.829 150.752C544.269 151.224 543.589 151.46 542.789 151.46C542.149 151.46 541.577 151.308 541.073 151.004C540.569 150.692 540.217 150.244 540.017 149.66L540.965 149.12C541.077 149.528 541.293 149.84 541.613 150.056C541.933 150.264 542.325 150.368 542.789 150.368C543.317 150.368 543.745 150.232 544.073 149.96C544.401 149.688 544.565 149.308 544.565 148.82C544.565 148.332 544.401 147.952 544.073 147.68C543.745 147.4 543.325 147.26 542.813 147.26H540.437L540.749 142.904H545.345V143.948H541.757L541.613 146.18H542.837ZM547.013 148.124V147.116H551.393V148.124H547.013ZM558.997 148.664V149.708H557.977V151.304H556.861V149.708H552.577V148.664L555.589 142.904H556.789L553.777 148.664H556.861V146.288H557.977V148.664H558.997ZM565.418 150.272C564.85 151.064 564.054 151.46 563.03 151.46C562.006 151.46 561.21 151.064 560.642 150.272C560.074 149.48 559.79 148.424 559.79 147.104C559.79 145.784 560.074 144.728 560.642 143.936C561.21 143.144 562.006 142.748 563.03 142.748C564.054 142.748 564.85 143.144 565.418 143.936C565.986 144.728 566.27 145.784 566.27 147.104C566.27 148.424 565.986 149.48 565.418 150.272ZM561.458 149.516C561.826 150.084 562.35 150.368 563.03 150.368C563.71 150.368 564.234 150.084 564.602 149.516C564.978 148.948 565.166 148.144 565.166 147.104C565.166 146.064 564.978 145.26 564.602 144.692C564.234 144.116 563.71 143.828 563.03 143.828C562.35 143.828 561.826 144.112 561.458 144.68C561.09 145.248 560.906 146.056 560.906 147.104C560.906 148.144 561.09 148.948 561.458 149.516Z" fill="#979797"/>
<path d="M525.037 103.537C525.037 100.775 527.275 98.5368 530.037 98.5368H541.564C544.325 98.5368 546.564 100.775 546.564 103.537V128.41H525.037V103.537Z" fill="#E786D7"/>
<rect x="556.564" y="126.775" width="21.5272" height="1.63499" fill="#7F7FD5"/>
<path d="M616.841 145.637L621.797 147.797V148.817L616.841 150.977V149.849L620.609 148.313L616.841 146.765V145.637ZM629.17 149.873V150.917H628.15V152.513H627.034V150.917H622.75V149.873L625.762 144.113H626.962L623.95 149.873H627.034V147.497H628.15V149.873H629.17ZM635.591 151.481C635.023 152.273 634.227 152.669 633.203 152.669C632.179 152.669 631.383 152.273 630.815 151.481C630.247 150.689 629.963 149.633 629.963 148.313C629.963 146.993 630.247 145.937 630.815 145.145C631.383 144.353 632.179 143.957 633.203 143.957C634.227 143.957 635.023 144.353 635.591 145.145C636.159 145.937 636.443 146.993 636.443 148.313C636.443 149.633 636.159 150.689 635.591 151.481ZM631.631 150.725C631.999 151.293 632.523 151.577 633.203 151.577C633.883 151.577 634.407 151.293 634.775 150.725C635.151 150.157 635.339 149.353 635.339 148.313C635.339 147.273 635.151 146.469 634.775 145.901C634.407 145.325 633.883 145.037 633.203 145.037C632.523 145.037 631.999 145.321 631.631 145.889C631.263 146.457 631.079 147.265 631.079 148.313C631.079 149.353 631.263 150.157 631.631 150.725Z" fill="#979797"/>
<rect x="608.055" y="126.985" width="21.5272" height="1.63499" fill="#E786D7"/>
<path d="M629.583 110.537C629.583 107.775 631.821 105.537 634.583 105.537H646.11C648.871 105.537 651.11 107.775 651.11 110.537V128.619H629.583V110.537Z" fill="#7F7FD5"/>
</svg>
