<svg width="332" height="140" viewBox="0 0 332 140" fill="none" xmlns="http://www.w3.org/2000/svg">
<rect x="192" y="22" width="140" height="10" rx="5" fill="#4D4D4D"/>
<rect x="192" y="22" width="13" height="10" rx="5" fill="#7F7FD5"/>
<path d="M196.848 11.156C195.576 11.156 194.524 10.736 193.692 9.896C192.868 9.056 192.456 8.024 192.456 6.8C192.456 5.576 192.868 4.544 193.692 3.704C194.524 2.864 195.576 2.444 196.848 2.444C197.616 2.444 198.32 2.628 198.96 2.996C199.608 3.364 200.112 3.86 200.472 4.484L199.5 5.048C199.26 4.584 198.9 4.216 198.42 3.944C197.948 3.664 197.424 3.524 196.848 3.524C195.88 3.524 195.088 3.836 194.472 4.46C193.864 5.084 193.56 5.864 193.56 6.8C193.56 7.728 193.864 8.504 194.472 9.128C195.088 9.752 195.88 10.064 196.848 10.064C197.424 10.064 197.948 9.928 198.42 9.656C198.9 9.376 199.26 9.008 199.5 8.552L200.472 9.104C200.12 9.728 199.62 10.228 198.972 10.604C198.324 10.972 197.616 11.156 196.848 11.156ZM204.651 4.844C205.355 4.844 205.919 5.068 206.343 5.516C206.767 5.956 206.979 6.556 206.979 7.316V11H205.935V7.376C205.935 6.888 205.803 6.512 205.539 6.248C205.275 5.976 204.911 5.84 204.447 5.84C203.927 5.84 203.507 6.004 203.187 6.332C202.867 6.652 202.707 7.148 202.707 7.82V11H201.663V2.6H202.707V5.864C203.131 5.184 203.779 4.844 204.651 4.844ZM208.965 3.908C208.765 3.908 208.597 3.84 208.461 3.704C208.325 3.568 208.257 3.404 208.257 3.212C208.257 3.02 208.325 2.856 208.461 2.72C208.597 2.576 208.765 2.504 208.965 2.504C209.157 2.504 209.321 2.576 209.457 2.72C209.593 2.856 209.661 3.02 209.661 3.212C209.661 3.404 209.593 3.568 209.457 3.704C209.321 3.84 209.157 3.908 208.965 3.908ZM208.437 11V5H209.481V11H208.437ZM214.061 4.844C214.765 4.844 215.329 5.068 215.753 5.516C216.177 5.956 216.389 6.556 216.389 7.316V11H215.345V7.376C215.345 6.888 215.213 6.512 214.949 6.248C214.685 5.976 214.321 5.84 213.857 5.84C213.337 5.84 212.917 6.004 212.597 6.332C212.277 6.652 212.117 7.148 212.117 7.82V11H211.073V5H212.117V5.864C212.541 5.184 213.189 4.844 214.061 4.844ZM222.815 5H223.859V11H222.815V9.968C222.295 10.76 221.539 11.156 220.547 11.156C219.707 11.156 218.991 10.852 218.399 10.244C217.807 9.628 217.511 8.88 217.511 8C217.511 7.12 217.807 6.376 218.399 5.768C218.991 5.152 219.707 4.844 220.547 4.844C221.539 4.844 222.295 5.24 222.815 6.032V5ZM220.679 10.148C221.287 10.148 221.795 9.944 222.203 9.536C222.611 9.12 222.815 8.608 222.815 8C222.815 7.392 222.611 6.884 222.203 6.476C221.795 6.06 221.287 5.852 220.679 5.852C220.079 5.852 219.575 6.06 219.167 6.476C218.759 6.884 218.555 7.392 218.555 8C218.555 8.608 218.759 9.12 219.167 9.536C219.575 9.944 220.079 10.148 220.679 10.148Z" fill="#CACACA"/>
<path d="M306.996 9.968C306.428 10.76 305.632 11.156 304.608 11.156C303.584 11.156 302.788 10.76 302.22 9.968C301.652 9.176 301.368 8.12 301.368 6.8C301.368 5.48 301.652 4.424 302.22 3.632C302.788 2.84 303.584 2.444 304.608 2.444C305.632 2.444 306.428 2.84 306.996 3.632C307.564 4.424 307.848 5.48 307.848 6.8C307.848 8.12 307.564 9.176 306.996 9.968ZM303.036 9.212C303.404 9.78 303.928 10.064 304.608 10.064C305.288 10.064 305.812 9.78 306.18 9.212C306.556 8.644 306.744 7.84 306.744 6.8C306.744 5.76 306.556 4.956 306.18 4.388C305.812 3.812 305.288 3.524 304.608 3.524C303.928 3.524 303.404 3.808 303.036 4.376C302.668 4.944 302.484 5.752 302.484 6.8C302.484 7.84 302.668 8.644 303.036 9.212ZM310.375 9.764L309.595 12.68H308.695L309.175 9.764H310.375ZM311.491 11V10.088L314.455 7.064C315.247 6.272 315.643 5.592 315.643 5.024C315.643 4.552 315.499 4.184 315.211 3.92C314.923 3.656 314.571 3.524 314.155 3.524C313.363 3.524 312.787 3.9 312.427 4.652L311.491 4.1C311.755 3.556 312.119 3.144 312.583 2.864C313.055 2.584 313.575 2.444 314.143 2.444C314.847 2.444 315.459 2.676 315.979 3.14C316.499 3.604 316.759 4.228 316.759 5.012C316.759 5.86 316.259 6.784 315.259 7.784L313.111 9.92H316.915V11H311.491ZM320.404 5.504C321.244 5.504 321.936 5.768 322.48 6.296C323.024 6.816 323.296 7.492 323.296 8.324C323.296 9.156 323.024 9.836 322.48 10.364C321.936 10.892 321.244 11.156 320.404 11.156C319.556 11.156 318.86 10.892 318.316 10.364C317.78 9.836 317.512 9.156 317.512 8.324C317.512 7.676 317.68 7.116 318.016 6.644L320.716 2.6H321.988L320.008 5.528C320.184 5.512 320.316 5.504 320.404 5.504ZM319.108 9.608C319.444 9.928 319.876 10.088 320.404 10.088C320.932 10.088 321.36 9.928 321.688 9.608C322.024 9.28 322.192 8.852 322.192 8.324C322.192 7.796 322.024 7.372 321.688 7.052C321.36 6.732 320.932 6.572 320.404 6.572C319.868 6.572 319.436 6.732 319.108 7.052C318.78 7.372 318.616 7.796 318.616 8.324C318.616 8.852 318.78 9.28 319.108 9.608ZM325.826 6.164C325.282 6.164 324.83 5.984 324.47 5.624C324.11 5.264 323.93 4.824 323.93 4.304C323.93 3.792 324.11 3.356 324.47 2.996C324.838 2.628 325.29 2.444 325.826 2.444C326.37 2.444 326.822 2.624 327.182 2.984C327.542 3.344 327.722 3.784 327.722 4.304C327.722 4.824 327.542 5.264 327.182 5.624C326.83 5.984 326.378 6.164 325.826 6.164ZM325.13 5.012C325.314 5.196 325.546 5.288 325.826 5.288C326.106 5.288 326.334 5.192 326.51 5C326.694 4.808 326.786 4.576 326.786 4.304C326.786 4.032 326.694 3.804 326.51 3.62C326.334 3.428 326.106 3.332 325.826 3.332C325.546 3.332 325.314 3.428 325.13 3.62C324.954 3.804 324.866 4.032 324.866 4.304C324.866 4.584 324.954 4.82 325.13 5.012ZM324.494 9.812L330.074 3.572L330.662 3.896L325.07 10.148L324.494 9.812ZM330.806 10.604C330.446 10.964 329.994 11.144 329.45 11.144C328.906 11.144 328.454 10.964 328.094 10.604C327.734 10.244 327.554 9.804 327.554 9.284C327.554 8.764 327.734 8.324 328.094 7.964C328.454 7.604 328.906 7.424 329.45 7.424C329.994 7.424 330.446 7.604 330.806 7.964C331.166 8.324 331.346 8.764 331.346 9.284C331.346 9.804 331.166 10.244 330.806 10.604ZM328.754 9.98C328.938 10.164 329.17 10.256 329.45 10.256C329.73 10.256 329.958 10.164 330.134 9.98C330.318 9.788 330.41 9.556 330.41 9.284C330.41 9.012 330.318 8.784 330.134 8.6C329.958 8.408 329.73 8.312 329.45 8.312C329.17 8.312 328.938 8.408 328.754 8.6C328.578 8.784 328.49 9.012 328.49 9.284C328.49 9.556 328.578 9.788 328.754 9.98Z" fill="#979797"/>
<rect y="77" width="140" height="10" rx="5" fill="#4D4D4D"/>
<rect y="77" width="5" height="10" rx="2.5" fill="#7F7FD5"/>
<path d="M6.216 64.352C5.632 64.888 4.876 65.156 3.948 65.156C3.02 65.156 2.26 64.888 1.668 64.352C1.084 63.808 0.792 63.084 0.792 62.18V56.6H1.908V62.132C1.908 62.724 2.084 63.196 2.436 63.548C2.788 63.892 3.292 64.064 3.948 64.064C4.604 64.064 5.108 63.892 5.46 63.548C5.812 63.196 5.988 62.724 5.988 62.132V56.6H7.092V62.18C7.092 63.084 6.8 63.808 6.216 64.352ZM13.7664 65H12.4704L9.73444 62.156V65H8.69044V56.6H9.73444V61.652L12.3264 59H13.6704L10.8024 61.904L13.7664 65ZM15.7813 60.008C16.1253 59.264 16.7493 58.892 17.6533 58.892V59.984C17.1413 59.96 16.7013 60.096 16.3333 60.392C15.9653 60.688 15.7813 61.164 15.7813 61.82V65H14.7373V59H15.7813V60.008ZM23.3147 59H24.3587V65H23.3147V63.968C22.7947 64.76 22.0387 65.156 21.0467 65.156C20.2067 65.156 19.4907 64.852 18.8987 64.244C18.3067 63.628 18.0107 62.88 18.0107 62C18.0107 61.12 18.3067 60.376 18.8987 59.768C19.4907 59.152 20.2067 58.844 21.0467 58.844C22.0387 58.844 22.7947 59.24 23.3147 60.032V59ZM21.1787 64.148C21.7867 64.148 22.2947 63.944 22.7027 63.536C23.1107 63.12 23.3147 62.608 23.3147 62C23.3147 61.392 23.1107 60.884 22.7027 60.476C22.2947 60.06 21.7867 59.852 21.1787 59.852C20.5787 59.852 20.0747 60.06 19.6667 60.476C19.2587 60.884 19.0547 61.392 19.0547 62C19.0547 62.608 19.2587 63.12 19.6667 63.536C20.0747 63.944 20.5787 64.148 21.1787 64.148ZM26.4684 57.908C26.2684 57.908 26.1004 57.84 25.9644 57.704C25.8284 57.568 25.7604 57.404 25.7604 57.212C25.7604 57.02 25.8284 56.856 25.9644 56.72C26.1004 56.576 26.2684 56.504 26.4684 56.504C26.6604 56.504 26.8244 56.576 26.9604 56.72C27.0964 56.856 27.1644 57.02 27.1644 57.212C27.1644 57.404 27.0964 57.568 26.9604 57.704C26.8244 57.84 26.6604 57.908 26.4684 57.908ZM25.9404 65V59H26.9844V65H25.9404ZM31.5652 58.844C32.2692 58.844 32.8332 59.068 33.2572 59.516C33.6812 59.956 33.8932 60.556 33.8932 61.316V65H32.8492V61.376C32.8492 60.888 32.7172 60.512 32.4532 60.248C32.1892 59.976 31.8252 59.84 31.3612 59.84C30.8412 59.84 30.4212 60.004 30.1012 60.332C29.7812 60.652 29.6212 61.148 29.6212 61.82V65H28.5772V59H29.6212V59.864C30.0452 59.184 30.6932 58.844 31.5652 58.844ZM36.0826 62.48C36.1866 63.016 36.4306 63.432 36.8146 63.728C37.2066 64.024 37.6866 64.172 38.2546 64.172C39.0466 64.172 39.6226 63.88 39.9826 63.296L40.8706 63.8C40.2866 64.704 39.4066 65.156 38.2306 65.156C37.2786 65.156 36.5026 64.86 35.9026 64.268C35.3106 63.668 35.0146 62.912 35.0146 62C35.0146 61.096 35.3066 60.344 35.8906 59.744C36.4746 59.144 37.2306 58.844 38.1586 58.844C39.0386 58.844 39.7546 59.156 40.3066 59.78C40.8666 60.396 41.1466 61.14 41.1466 62.012C41.1466 62.164 41.1346 62.32 41.1106 62.48H36.0826ZM38.1586 59.828C37.5986 59.828 37.1346 59.988 36.7666 60.308C36.3986 60.62 36.1706 61.04 36.0826 61.568H40.0906C40.0026 61 39.7786 60.568 39.4186 60.272C39.0586 59.976 38.6386 59.828 38.1586 59.828Z" fill="#CACACA"/>
<path d="M113.672 63.968C113.104 64.76 112.308 65.156 111.284 65.156C110.26 65.156 109.464 64.76 108.896 63.968C108.328 63.176 108.044 62.12 108.044 60.8C108.044 59.48 108.328 58.424 108.896 57.632C109.464 56.84 110.26 56.444 111.284 56.444C112.308 56.444 113.104 56.84 113.672 57.632C114.24 58.424 114.524 59.48 114.524 60.8C114.524 62.12 114.24 63.176 113.672 63.968ZM109.712 63.212C110.08 63.78 110.604 64.064 111.284 64.064C111.964 64.064 112.488 63.78 112.856 63.212C113.232 62.644 113.42 61.84 113.42 60.8C113.42 59.76 113.232 58.956 112.856 58.388C112.488 57.812 111.964 57.524 111.284 57.524C110.604 57.524 110.08 57.808 109.712 58.376C109.344 58.944 109.16 59.752 109.16 60.8C109.16 61.84 109.344 62.644 109.712 63.212ZM117.051 63.764L116.271 66.68H115.371L115.851 63.764H117.051ZM118.166 65V64.088L121.13 61.064C121.922 60.272 122.318 59.592 122.318 59.024C122.318 58.552 122.174 58.184 121.886 57.92C121.598 57.656 121.246 57.524 120.83 57.524C120.038 57.524 119.462 57.9 119.102 58.652L118.166 58.1C118.43 57.556 118.794 57.144 119.258 56.864C119.73 56.584 120.25 56.444 120.818 56.444C121.522 56.444 122.134 56.676 122.654 57.14C123.174 57.604 123.434 58.228 123.434 59.012C123.434 59.86 122.934 60.784 121.934 61.784L119.786 63.92H123.59V65H118.166ZM130.113 63.968C129.545 64.76 128.749 65.156 127.725 65.156C126.701 65.156 125.905 64.76 125.337 63.968C124.769 63.176 124.485 62.12 124.485 60.8C124.485 59.48 124.769 58.424 125.337 57.632C125.905 56.84 126.701 56.444 127.725 56.444C128.749 56.444 129.545 56.84 130.113 57.632C130.681 58.424 130.965 59.48 130.965 60.8C130.965 62.12 130.681 63.176 130.113 63.968ZM126.153 63.212C126.521 63.78 127.045 64.064 127.725 64.064C128.405 64.064 128.929 63.78 129.297 63.212C129.673 62.644 129.861 61.84 129.861 60.8C129.861 59.76 129.673 58.956 129.297 58.388C128.929 57.812 128.405 57.524 127.725 57.524C127.045 57.524 126.521 57.808 126.153 58.376C125.785 58.944 125.601 59.752 125.601 60.8C125.601 61.84 125.785 62.644 126.153 63.212ZM133.826 60.164C133.282 60.164 132.83 59.984 132.47 59.624C132.11 59.264 131.93 58.824 131.93 58.304C131.93 57.792 132.11 57.356 132.47 56.996C132.838 56.628 133.29 56.444 133.826 56.444C134.37 56.444 134.822 56.624 135.182 56.984C135.542 57.344 135.722 57.784 135.722 58.304C135.722 58.824 135.542 59.264 135.182 59.624C134.83 59.984 134.378 60.164 133.826 60.164ZM133.13 59.012C133.314 59.196 133.546 59.288 133.826 59.288C134.106 59.288 134.334 59.192 134.51 59C134.694 58.808 134.786 58.576 134.786 58.304C134.786 58.032 134.694 57.804 134.51 57.62C134.334 57.428 134.106 57.332 133.826 57.332C133.546 57.332 133.314 57.428 133.13 57.62C132.954 57.804 132.866 58.032 132.866 58.304C132.866 58.584 132.954 58.82 133.13 59.012ZM132.494 63.812L138.074 57.572L138.662 57.896L133.07 64.148L132.494 63.812ZM138.806 64.604C138.446 64.964 137.994 65.144 137.45 65.144C136.906 65.144 136.454 64.964 136.094 64.604C135.734 64.244 135.554 63.804 135.554 63.284C135.554 62.764 135.734 62.324 136.094 61.964C136.454 61.604 136.906 61.424 137.45 61.424C137.994 61.424 138.446 61.604 138.806 61.964C139.166 62.324 139.346 62.764 139.346 63.284C139.346 63.804 139.166 64.244 138.806 64.604ZM136.754 63.98C136.938 64.164 137.17 64.256 137.45 64.256C137.73 64.256 137.958 64.164 138.134 63.98C138.318 63.788 138.41 63.556 138.41 63.284C138.41 63.012 138.318 62.784 138.134 62.6C137.958 62.408 137.73 62.312 137.45 62.312C137.17 62.312 136.938 62.408 136.754 62.6C136.578 62.784 136.49 63.012 136.49 63.284C136.49 63.556 136.578 63.788 136.754 63.98Z" fill="#979797"/>
<rect y="23" width="140" height="10" rx="5" fill="#4D4D4D"/>
<rect y="23" width="128" height="10" rx="5" fill="#7F7FD5"/>
<path d="M5.88 11L3.996 7.784H2.016V11H0.9V2.6H4.26C4.98 2.6 5.596 2.856 6.108 3.368C6.62 3.872 6.876 4.484 6.876 5.204C6.876 5.748 6.712 6.244 6.384 6.692C6.064 7.14 5.648 7.456 5.136 7.64L7.116 11H5.88ZM2.016 3.644V6.776H4.26C4.676 6.776 5.028 6.624 5.316 6.32C5.612 6.008 5.76 5.636 5.76 5.204C5.76 4.772 5.612 4.404 5.316 4.1C5.028 3.796 4.676 3.644 4.26 3.644H2.016ZM12.139 5H13.183V11H12.139V10.136C11.715 10.816 11.067 11.156 10.195 11.156C9.49103 11.156 8.92703 10.936 8.50303 10.496C8.07903 10.048 7.86703 9.444 7.86703 8.684V5H8.91103V8.624C8.91103 9.112 9.04303 9.492 9.30703 9.764C9.57103 10.028 9.93503 10.16 10.399 10.16C10.919 10.16 11.339 10 11.659 9.68C11.979 9.352 12.139 8.852 12.139 8.18V5ZM15.6608 6.62C15.6608 6.852 15.7768 7.04 16.0088 7.184C16.2408 7.32 16.5208 7.432 16.8488 7.52C17.1768 7.6 17.5048 7.696 17.8328 7.808C18.1608 7.912 18.4408 8.096 18.6728 8.36C18.9048 8.616 19.0208 8.948 19.0208 9.356C19.0208 9.9 18.8088 10.336 18.3848 10.664C17.9688 10.992 17.4328 11.156 16.7768 11.156C16.1928 11.156 15.6928 11.028 15.2768 10.772C14.8608 10.516 14.5648 10.176 14.3888 9.752L15.2888 9.236C15.3848 9.524 15.5648 9.752 15.8288 9.92C16.0928 10.088 16.4088 10.172 16.7768 10.172C17.1208 10.172 17.4048 10.108 17.6288 9.98C17.8528 9.844 17.9648 9.636 17.9648 9.356C17.9648 9.124 17.8488 8.94 17.6168 8.804C17.3848 8.66 17.1048 8.548 16.7768 8.468C16.4488 8.38 16.1208 8.28 15.7928 8.168C15.4648 8.056 15.1848 7.872 14.9528 7.616C14.7208 7.36 14.6048 7.032 14.6048 6.632C14.6048 6.112 14.8048 5.684 15.2048 5.348C15.6128 5.012 16.1208 4.844 16.7288 4.844C17.2168 4.844 17.6488 4.956 18.0248 5.18C18.4088 5.396 18.6968 5.7 18.8888 6.092L18.0128 6.584C17.7968 6.072 17.3688 5.816 16.7288 5.816C16.4328 5.816 16.1808 5.888 15.9728 6.032C15.7648 6.168 15.6608 6.364 15.6608 6.62ZM20.7818 6.62C20.7818 6.852 20.8978 7.04 21.1298 7.184C21.3618 7.32 21.6418 7.432 21.9698 7.52C22.2978 7.6 22.6258 7.696 22.9538 7.808C23.2818 7.912 23.5618 8.096 23.7938 8.36C24.0258 8.616 24.1418 8.948 24.1418 9.356C24.1418 9.9 23.9298 10.336 23.5058 10.664C23.0898 10.992 22.5538 11.156 21.8978 11.156C21.3138 11.156 20.8138 11.028 20.3978 10.772C19.9818 10.516 19.6858 10.176 19.5098 9.752L20.4098 9.236C20.5058 9.524 20.6858 9.752 20.9498 9.92C21.2138 10.088 21.5298 10.172 21.8978 10.172C22.2418 10.172 22.5258 10.108 22.7498 9.98C22.9738 9.844 23.0858 9.636 23.0858 9.356C23.0858 9.124 22.9698 8.94 22.7378 8.804C22.5058 8.66 22.2258 8.548 21.8978 8.468C21.5698 8.38 21.2418 8.28 20.9138 8.168C20.5858 8.056 20.3058 7.872 20.0738 7.616C19.8418 7.36 19.7258 7.032 19.7258 6.632C19.7258 6.112 19.9258 5.684 20.3258 5.348C20.7338 5.012 21.2418 4.844 21.8498 4.844C22.3378 4.844 22.7698 4.956 23.1458 5.18C23.5298 5.396 23.8178 5.7 24.0098 6.092L23.1338 6.584C22.9178 6.072 22.4898 5.816 21.8498 5.816C21.5538 5.816 21.3018 5.888 21.0938 6.032C20.8858 6.168 20.7818 6.364 20.7818 6.62ZM25.8473 3.908C25.6473 3.908 25.4793 3.84 25.3433 3.704C25.2073 3.568 25.1393 3.404 25.1393 3.212C25.1393 3.02 25.2073 2.856 25.3433 2.72C25.4793 2.576 25.6473 2.504 25.8473 2.504C26.0393 2.504 26.2033 2.576 26.3393 2.72C26.4753 2.856 26.5433 3.02 26.5433 3.212C26.5433 3.404 26.4753 3.568 26.3393 3.704C26.2033 3.84 26.0393 3.908 25.8473 3.908ZM25.3193 11V5H26.3633V11H25.3193ZM32.9241 5H33.9681V11H32.9241V9.968C32.4041 10.76 31.6481 11.156 30.6561 11.156C29.8161 11.156 29.1001 10.852 28.5081 10.244C27.9161 9.628 27.6201 8.88 27.6201 8C27.6201 7.12 27.9161 6.376 28.5081 5.768C29.1001 5.152 29.8161 4.844 30.6561 4.844C31.6481 4.844 32.4041 5.24 32.9241 6.032V5ZM30.7881 10.148C31.3961 10.148 31.9041 9.944 32.3121 9.536C32.7201 9.12 32.9241 8.608 32.9241 8C32.9241 7.392 32.7201 6.884 32.3121 6.476C31.9041 6.06 31.3961 5.852 30.7881 5.852C30.1881 5.852 29.6841 6.06 29.2761 6.476C28.8681 6.884 28.6641 7.392 28.6641 8C28.6641 8.608 28.8681 9.12 29.2761 9.536C29.6841 9.944 30.1881 10.148 30.7881 10.148Z" fill="#CACACA"/>
<path d="M124.804 5.264C124.804 5.912 124.632 6.476 124.288 6.956H124.3L121.588 11H120.328L122.32 8.06C122.144 8.076 122.008 8.084 121.912 8.084C121.064 8.084 120.368 7.824 119.824 7.304C119.288 6.776 119.02 6.096 119.02 5.264C119.02 4.432 119.288 3.756 119.824 3.236C120.368 2.708 121.064 2.444 121.912 2.444C122.76 2.444 123.452 2.708 123.988 3.236C124.532 3.756 124.804 4.432 124.804 5.264ZM120.616 3.992C120.288 4.312 120.124 4.736 120.124 5.264C120.124 5.792 120.288 6.22 120.616 6.548C120.952 6.868 121.384 7.028 121.912 7.028C122.44 7.028 122.868 6.868 123.196 6.548C123.532 6.22 123.7 5.792 123.7 5.264C123.7 4.736 123.536 4.312 123.208 3.992C122.88 3.672 122.448 3.512 121.912 3.512C121.384 3.512 120.952 3.672 120.616 3.992ZM131.614 8.36V9.404H130.594V11H129.478V9.404H125.194V8.36L128.206 2.6H129.406L126.394 8.36H129.478V5.984H130.594V8.36H131.614ZM133.826 6.164C133.282 6.164 132.83 5.984 132.47 5.624C132.11 5.264 131.93 4.824 131.93 4.304C131.93 3.792 132.11 3.356 132.47 2.996C132.838 2.628 133.29 2.444 133.826 2.444C134.37 2.444 134.822 2.624 135.182 2.984C135.542 3.344 135.722 3.784 135.722 4.304C135.722 4.824 135.542 5.264 135.182 5.624C134.83 5.984 134.378 6.164 133.826 6.164ZM133.13 5.012C133.314 5.196 133.546 5.288 133.826 5.288C134.106 5.288 134.334 5.192 134.51 5C134.694 4.808 134.786 4.576 134.786 4.304C134.786 4.032 134.694 3.804 134.51 3.62C134.334 3.428 134.106 3.332 133.826 3.332C133.546 3.332 133.314 3.428 133.13 3.62C132.954 3.804 132.866 4.032 132.866 4.304C132.866 4.584 132.954 4.82 133.13 5.012ZM132.494 9.812L138.074 3.572L138.662 3.896L133.07 10.148L132.494 9.812ZM138.806 10.604C138.446 10.964 137.994 11.144 137.45 11.144C136.906 11.144 136.454 10.964 136.094 10.604C135.734 10.244 135.554 9.804 135.554 9.284C135.554 8.764 135.734 8.324 136.094 7.964C136.454 7.604 136.906 7.424 137.45 7.424C137.994 7.424 138.446 7.604 138.806 7.964C139.166 8.324 139.346 8.764 139.346 9.284C139.346 9.804 139.166 10.244 138.806 10.604ZM136.754 9.98C136.938 10.164 137.17 10.256 137.45 10.256C137.73 10.256 137.958 10.164 138.134 9.98C138.318 9.788 138.41 9.556 138.41 9.284C138.41 9.012 138.318 8.784 138.134 8.6C137.958 8.408 137.73 8.312 137.45 8.312C137.17 8.312 136.938 8.408 136.754 8.6C136.578 8.784 136.49 9.012 136.49 9.284C136.49 9.556 136.578 9.788 136.754 9.98Z" fill="#979797"/>
<rect x="192" y="76" width="140" height="10" rx="5" fill="#4D4D4D"/>
<rect x="192" y="76" width="5" height="10" rx="2.5" fill="#7F7FD5"/>
<path d="M198.216 63.352C197.632 63.888 196.876 64.156 195.948 64.156C195.02 64.156 194.26 63.888 193.668 63.352C193.084 62.808 192.792 62.084 192.792 61.18V55.6H193.908V61.132C193.908 61.724 194.084 62.196 194.436 62.548C194.788 62.892 195.292 63.064 195.948 63.064C196.604 63.064 197.108 62.892 197.46 62.548C197.812 62.196 197.988 61.724 197.988 61.132V55.6H199.092V61.18C199.092 62.084 198.8 62.808 198.216 63.352ZM203.51 64.156C202.726 64.156 202.054 63.972 201.494 63.604C200.942 63.236 200.554 62.732 200.33 62.092L201.29 61.54C201.618 62.556 202.366 63.064 203.534 63.064C204.11 63.064 204.55 62.948 204.854 62.716C205.158 62.476 205.31 62.16 205.31 61.768C205.31 61.368 205.158 61.068 204.854 60.868C204.55 60.668 204.042 60.456 203.33 60.232C202.978 60.12 202.71 60.032 202.526 59.968C202.342 59.896 202.11 59.792 201.83 59.656C201.558 59.512 201.354 59.368 201.218 59.224C201.082 59.072 200.958 58.876 200.846 58.636C200.742 58.396 200.69 58.124 200.69 57.82C200.69 57.092 200.946 56.516 201.458 56.092C201.97 55.66 202.594 55.444 203.33 55.444C203.994 55.444 204.57 55.612 205.058 55.948C205.554 56.284 205.926 56.728 206.174 57.28L205.238 57.82C204.878 56.956 204.242 56.524 203.33 56.524C202.874 56.524 202.506 56.636 202.226 56.86C201.946 57.084 201.806 57.388 201.806 57.772C201.806 58.14 201.938 58.42 202.202 58.612C202.466 58.804 202.922 59.004 203.57 59.212C203.802 59.284 203.966 59.336 204.062 59.368C204.158 59.4 204.306 59.456 204.506 59.536C204.714 59.616 204.866 59.68 204.962 59.728C205.058 59.776 205.186 59.844 205.346 59.932C205.514 60.02 205.638 60.104 205.718 60.184C205.798 60.264 205.89 60.364 205.994 60.484C206.106 60.596 206.186 60.712 206.234 60.832C206.282 60.952 206.322 61.092 206.354 61.252C206.394 61.404 206.414 61.568 206.414 61.744C206.414 62.48 206.146 63.068 205.61 63.508C205.074 63.94 204.374 64.156 203.51 64.156ZM213.139 64L212.455 62.116H208.675L207.991 64H206.803L209.935 55.6H211.195L214.327 64H213.139ZM209.059 61.072H212.071L210.559 56.932L209.059 61.072Z" fill="#CACACA"/>
<path d="M305.672 62.968C305.104 63.76 304.308 64.156 303.284 64.156C302.26 64.156 301.464 63.76 300.896 62.968C300.328 62.176 300.044 61.12 300.044 59.8C300.044 58.48 300.328 57.424 300.896 56.632C301.464 55.84 302.26 55.444 303.284 55.444C304.308 55.444 305.104 55.84 305.672 56.632C306.24 57.424 306.524 58.48 306.524 59.8C306.524 61.12 306.24 62.176 305.672 62.968ZM301.712 62.212C302.08 62.78 302.604 63.064 303.284 63.064C303.964 63.064 304.488 62.78 304.856 62.212C305.232 61.644 305.42 60.84 305.42 59.8C305.42 58.76 305.232 57.956 304.856 57.388C304.488 56.812 303.964 56.524 303.284 56.524C302.604 56.524 302.08 56.808 301.712 57.376C301.344 57.944 301.16 58.752 301.16 59.8C301.16 60.84 301.344 61.644 301.712 62.212ZM309.051 62.764L308.271 65.68H307.371L307.851 62.764H309.051ZM310.166 64V63.088L313.13 60.064C313.922 59.272 314.318 58.592 314.318 58.024C314.318 57.552 314.174 57.184 313.886 56.92C313.598 56.656 313.246 56.524 312.83 56.524C312.038 56.524 311.462 56.9 311.102 57.652L310.166 57.1C310.43 56.556 310.794 56.144 311.258 55.864C311.73 55.584 312.25 55.444 312.818 55.444C313.522 55.444 314.134 55.676 314.654 56.14C315.174 56.604 315.434 57.228 315.434 58.012C315.434 58.86 314.934 59.784 313.934 60.784L311.786 62.92H315.59V64H310.166ZM322.113 62.968C321.545 63.76 320.749 64.156 319.725 64.156C318.701 64.156 317.905 63.76 317.337 62.968C316.769 62.176 316.485 61.12 316.485 59.8C316.485 58.48 316.769 57.424 317.337 56.632C317.905 55.84 318.701 55.444 319.725 55.444C320.749 55.444 321.545 55.84 322.113 56.632C322.681 57.424 322.965 58.48 322.965 59.8C322.965 61.12 322.681 62.176 322.113 62.968ZM318.153 62.212C318.521 62.78 319.045 63.064 319.725 63.064C320.405 63.064 320.929 62.78 321.297 62.212C321.673 61.644 321.861 60.84 321.861 59.8C321.861 58.76 321.673 57.956 321.297 57.388C320.929 56.812 320.405 56.524 319.725 56.524C319.045 56.524 318.521 56.808 318.153 57.376C317.785 57.944 317.601 58.752 317.601 59.8C317.601 60.84 317.785 61.644 318.153 62.212ZM325.826 59.164C325.282 59.164 324.83 58.984 324.47 58.624C324.11 58.264 323.93 57.824 323.93 57.304C323.93 56.792 324.11 56.356 324.47 55.996C324.838 55.628 325.29 55.444 325.826 55.444C326.37 55.444 326.822 55.624 327.182 55.984C327.542 56.344 327.722 56.784 327.722 57.304C327.722 57.824 327.542 58.264 327.182 58.624C326.83 58.984 326.378 59.164 325.826 59.164ZM325.13 58.012C325.314 58.196 325.546 58.288 325.826 58.288C326.106 58.288 326.334 58.192 326.51 58C326.694 57.808 326.786 57.576 326.786 57.304C326.786 57.032 326.694 56.804 326.51 56.62C326.334 56.428 326.106 56.332 325.826 56.332C325.546 56.332 325.314 56.428 325.13 56.62C324.954 56.804 324.866 57.032 324.866 57.304C324.866 57.584 324.954 57.82 325.13 58.012ZM324.494 62.812L330.074 56.572L330.662 56.896L325.07 63.148L324.494 62.812ZM330.806 63.604C330.446 63.964 329.994 64.144 329.45 64.144C328.906 64.144 328.454 63.964 328.094 63.604C327.734 63.244 327.554 62.804 327.554 62.284C327.554 61.764 327.734 61.324 328.094 60.964C328.454 60.604 328.906 60.424 329.45 60.424C329.994 60.424 330.446 60.604 330.806 60.964C331.166 61.324 331.346 61.764 331.346 62.284C331.346 62.804 331.166 63.244 330.806 63.604ZM328.754 62.98C328.938 63.164 329.17 63.256 329.45 63.256C329.73 63.256 329.958 63.164 330.134 62.98C330.318 62.788 330.41 62.556 330.41 62.284C330.41 62.012 330.318 61.784 330.134 61.6C329.958 61.408 329.73 61.312 329.45 61.312C329.17 61.312 328.938 61.408 328.754 61.6C328.578 61.784 328.49 62.012 328.49 62.284C328.49 62.556 328.578 62.788 328.754 62.98Z" fill="#979797"/>
<rect y="130" width="140" height="10" rx="5" fill="#4D4D4D"/>
<rect y="130" width="4" height="10" rx="2" fill="#7F7FD5"/>
<path d="M8.76 110.6V119H7.656V112.436L4.908 117.008H4.764L2.016 112.448V119H0.9V110.6H2.16L4.836 115.04L7.5 110.6H8.76ZM15.5123 118.244C14.8963 118.852 14.1483 119.156 13.2683 119.156C12.3883 119.156 11.6403 118.852 11.0243 118.244C10.4163 117.636 10.1123 116.888 10.1123 116C10.1123 115.112 10.4163 114.364 11.0243 113.756C11.6403 113.148 12.3883 112.844 13.2683 112.844C14.1483 112.844 14.8963 113.148 15.5123 113.756C16.1283 114.364 16.4362 115.112 16.4362 116C16.4362 116.888 16.1283 117.636 15.5123 118.244ZM13.2683 118.136C13.8683 118.136 14.3723 117.932 14.7803 117.524C15.1883 117.116 15.3923 116.608 15.3923 116C15.3923 115.392 15.1883 114.884 14.7803 114.476C14.3723 114.068 13.8683 113.864 13.2683 113.864C12.6763 113.864 12.1763 114.068 11.7683 114.476C11.3603 114.884 11.1562 115.392 11.1562 116C11.1562 116.608 11.3603 117.116 11.7683 117.524C12.1763 117.932 12.6763 118.136 13.2683 118.136ZM20.655 112.844C21.359 112.844 21.923 113.068 22.347 113.516C22.771 113.956 22.983 114.556 22.983 115.316V119H21.939V115.376C21.939 114.888 21.807 114.512 21.543 114.248C21.279 113.976 20.915 113.84 20.451 113.84C19.931 113.84 19.511 114.004 19.191 114.332C18.871 114.652 18.711 115.148 18.711 115.82V119H17.667V113H18.711V113.864C19.135 113.184 19.783 112.844 20.655 112.844ZM29.4204 113H30.4524V118.748C30.4524 119.636 30.1524 120.324 29.5524 120.812C28.9524 121.308 28.2324 121.556 27.3924 121.556C26.7204 121.556 26.1404 121.428 25.6524 121.172C25.1644 120.924 24.7964 120.564 24.5484 120.092L25.4604 119.576C25.7884 120.248 26.4404 120.584 27.4164 120.584C28.0404 120.584 28.5284 120.42 28.8804 120.092C29.2404 119.764 29.4204 119.316 29.4204 118.748V117.896C28.8924 118.696 28.1404 119.096 27.1644 119.096C26.3084 119.096 25.5844 118.792 24.9924 118.184C24.4004 117.576 24.1044 116.836 24.1044 115.964C24.1044 115.092 24.4004 114.356 24.9924 113.756C25.5844 113.148 26.3084 112.844 27.1644 112.844C28.1484 112.844 28.9004 113.24 29.4204 114.032V113ZM25.7604 117.488C26.1684 117.896 26.6764 118.1 27.2844 118.1C27.8924 118.1 28.4004 117.896 28.8084 117.488C29.2164 117.08 29.4204 116.572 29.4204 115.964C29.4204 115.364 29.2164 114.86 28.8084 114.452C28.4004 114.044 27.8924 113.84 27.2844 113.84C26.6764 113.84 26.1684 114.044 25.7604 114.452C25.3524 114.86 25.1484 115.364 25.1484 115.964C25.1484 116.572 25.3524 117.08 25.7604 117.488ZM37.0982 118.244C36.4822 118.852 35.7342 119.156 34.8542 119.156C33.9742 119.156 33.2262 118.852 32.6102 118.244C32.0022 117.636 31.6982 116.888 31.6982 116C31.6982 115.112 32.0022 114.364 32.6102 113.756C33.2262 113.148 33.9742 112.844 34.8542 112.844C35.7342 112.844 36.4822 113.148 37.0982 113.756C37.7142 114.364 38.0222 115.112 38.0222 116C38.0222 116.888 37.7142 117.636 37.0982 118.244ZM34.8542 118.136C35.4542 118.136 35.9582 117.932 36.3662 117.524C36.7742 117.116 36.9782 116.608 36.9782 116C36.9782 115.392 36.7742 114.884 36.3662 114.476C35.9582 114.068 35.4542 113.864 34.8542 113.864C34.2622 113.864 33.7622 114.068 33.3542 114.476C32.9462 114.884 32.7422 115.392 32.7422 116C32.7422 116.608 32.9462 117.116 33.3542 117.524C33.7622 117.932 34.2622 118.136 34.8542 118.136ZM39.2529 119V110.24H40.2969V119H39.2529ZM42.4177 111.908C42.2177 111.908 42.0497 111.84 41.9137 111.704C41.7777 111.568 41.7097 111.404 41.7097 111.212C41.7097 111.02 41.7777 110.856 41.9137 110.72C42.0497 110.576 42.2177 110.504 42.4177 110.504C42.6097 110.504 42.7737 110.576 42.9097 110.72C43.0457 110.856 43.1137 111.02 43.1137 111.212C43.1137 111.404 43.0457 111.568 42.9097 111.704C42.7737 111.84 42.6097 111.908 42.4177 111.908ZM41.8897 119V113H42.9337V119H41.8897ZM49.4944 113H50.5384V119H49.4944V117.968C48.9744 118.76 48.2184 119.156 47.2264 119.156C46.3864 119.156 45.6704 118.852 45.0784 118.244C44.4864 117.628 44.1904 116.88 44.1904 116C44.1904 115.12 44.4864 114.376 45.0784 113.768C45.6704 113.152 46.3864 112.844 47.2264 112.844C48.2184 112.844 48.9744 113.24 49.4944 114.032V113ZM47.3584 118.148C47.9664 118.148 48.4744 117.944 48.8824 117.536C49.2904 117.12 49.4944 116.608 49.4944 116C49.4944 115.392 49.2904 114.884 48.8824 114.476C48.4744 114.06 47.9664 113.852 47.3584 113.852C46.7584 113.852 46.2544 114.06 45.8464 114.476C45.4384 114.884 45.2344 115.392 45.2344 116C45.2344 116.608 45.4384 117.12 45.8464 117.536C46.2544 117.944 46.7584 118.148 47.3584 118.148Z" fill="#CACACA"/>
<path d="M116.871 117.968C116.303 118.76 115.507 119.156 114.483 119.156C113.459 119.156 112.663 118.76 112.095 117.968C111.527 117.176 111.243 116.12 111.243 114.8C111.243 113.48 111.527 112.424 112.095 111.632C112.663 110.84 113.459 110.444 114.483 110.444C115.507 110.444 116.303 110.84 116.871 111.632C117.439 112.424 117.723 113.48 117.723 114.8C117.723 116.12 117.439 117.176 116.871 117.968ZM112.911 117.212C113.279 117.78 113.803 118.064 114.483 118.064C115.163 118.064 115.687 117.78 116.055 117.212C116.431 116.644 116.619 115.84 116.619 114.8C116.619 113.76 116.431 112.956 116.055 112.388C115.687 111.812 115.163 111.524 114.483 111.524C113.803 111.524 113.279 111.808 112.911 112.376C112.543 112.944 112.359 113.752 112.359 114.8C112.359 115.84 112.543 116.644 112.911 117.212ZM120.25 117.764L119.47 120.68H118.57L119.05 117.764H120.25ZM123.31 110.6H124.27V119H123.166V111.8L121.378 112.328L121.102 111.368L123.31 110.6ZM129.003 114.044C129.643 114.164 130.167 114.44 130.575 114.872C130.983 115.304 131.187 115.852 131.187 116.516C131.187 117.332 130.907 117.976 130.347 118.448C129.787 118.92 129.107 119.156 128.307 119.156C127.667 119.156 127.099 119.012 126.603 118.724C126.107 118.428 125.755 118.004 125.547 117.452L126.483 116.9C126.731 117.676 127.339 118.064 128.307 118.064C128.827 118.064 129.251 117.928 129.579 117.656C129.907 117.384 130.071 117.004 130.071 116.516C130.071 116.028 129.907 115.648 129.579 115.376C129.251 115.096 128.827 114.956 128.307 114.956H128.019L127.575 114.272L129.519 111.644H125.787V110.6H130.827V111.584L129.003 114.044ZM133.826 114.164C133.282 114.164 132.83 113.984 132.47 113.624C132.11 113.264 131.93 112.824 131.93 112.304C131.93 111.792 132.11 111.356 132.47 110.996C132.838 110.628 133.29 110.444 133.826 110.444C134.37 110.444 134.822 110.624 135.182 110.984C135.542 111.344 135.722 111.784 135.722 112.304C135.722 112.824 135.542 113.264 135.182 113.624C134.83 113.984 134.378 114.164 133.826 114.164ZM133.13 113.012C133.314 113.196 133.546 113.288 133.826 113.288C134.106 113.288 134.334 113.192 134.51 113C134.694 112.808 134.786 112.576 134.786 112.304C134.786 112.032 134.694 111.804 134.51 111.62C134.334 111.428 134.106 111.332 133.826 111.332C133.546 111.332 133.314 111.428 133.13 111.62C132.954 111.804 132.866 112.032 132.866 112.304C132.866 112.584 132.954 112.82 133.13 113.012ZM132.494 117.812L138.074 111.572L138.662 111.896L133.07 118.148L132.494 117.812ZM138.806 118.604C138.446 118.964 137.994 119.144 137.45 119.144C136.906 119.144 136.454 118.964 136.094 118.604C135.734 118.244 135.554 117.804 135.554 117.284C135.554 116.764 135.734 116.324 136.094 115.964C136.454 115.604 136.906 115.424 137.45 115.424C137.994 115.424 138.446 115.604 138.806 115.964C139.166 116.324 139.346 116.764 139.346 117.284C139.346 117.804 139.166 118.244 138.806 118.604ZM136.754 117.98C136.938 118.164 137.17 118.256 137.45 118.256C137.73 118.256 137.958 118.164 138.134 117.98C138.318 117.788 138.41 117.556 138.41 117.284C138.41 117.012 138.318 116.784 138.134 116.6C137.958 116.408 137.73 116.312 137.45 116.312C137.17 116.312 136.938 116.408 136.754 116.6C136.578 116.784 136.49 117.012 136.49 117.284C136.49 117.556 136.578 117.788 136.754 117.98Z" fill="#979797"/>
<rect x="192" y="129" width="140" height="10" rx="5" fill="#4D4D4D"/>
<rect x="192" y="129" width="15" height="10" rx="5" fill="#7F7FD5"/>
<path d="M199.884 116.884C199.044 117.732 198.016 118.156 196.8 118.156C195.584 118.156 194.556 117.732 193.716 116.884C192.876 116.036 192.456 115.008 192.456 113.8C192.456 112.584 192.876 111.556 193.716 110.716C194.556 109.868 195.584 109.444 196.8 109.444C198.016 109.444 199.044 109.868 199.884 110.716C200.732 111.556 201.156 112.584 201.156 113.8C201.156 115.008 200.732 116.036 199.884 116.884ZM194.484 116.128C195.108 116.752 195.88 117.064 196.8 117.064C197.72 117.064 198.488 116.752 199.104 116.128C199.728 115.496 200.04 114.72 200.04 113.8C200.04 112.872 199.728 112.096 199.104 111.472C198.488 110.84 197.72 110.524 196.8 110.524C195.88 110.524 195.108 110.84 194.484 111.472C193.868 112.096 193.56 112.872 193.56 113.8C193.56 114.72 193.868 115.496 194.484 116.128ZM205.654 113.008H204.058V116.26C204.058 116.556 204.114 116.768 204.226 116.896C204.346 117.016 204.526 117.08 204.766 117.088C205.006 117.088 205.302 117.08 205.654 117.064V118C204.742 118.12 204.074 118.048 203.65 117.784C203.226 117.512 203.014 117.004 203.014 116.26V113.008H201.826V112H203.014V110.632L204.058 110.32V112H205.654V113.008ZM209.878 111.844C210.582 111.844 211.146 112.068 211.57 112.516C211.994 112.956 212.206 113.556 212.206 114.316V118H211.162V114.376C211.162 113.888 211.03 113.512 210.766 113.248C210.502 112.976 210.138 112.84 209.674 112.84C209.154 112.84 208.734 113.004 208.414 113.332C208.094 113.652 207.934 114.148 207.934 114.82V118H206.89V109.6H207.934V112.864C208.358 112.184 209.006 111.844 209.878 111.844ZM214.395 115.48C214.499 116.016 214.743 116.432 215.127 116.728C215.519 117.024 215.999 117.172 216.567 117.172C217.359 117.172 217.935 116.88 218.295 116.296L219.183 116.8C218.599 117.704 217.719 118.156 216.543 118.156C215.591 118.156 214.815 117.86 214.215 117.268C213.623 116.668 213.327 115.912 213.327 115C213.327 114.096 213.619 113.344 214.203 112.744C214.787 112.144 215.543 111.844 216.471 111.844C217.351 111.844 218.067 112.156 218.619 112.78C219.179 113.396 219.459 114.14 219.459 115.012C219.459 115.164 219.447 115.32 219.423 115.48H214.395ZM216.471 112.828C215.911 112.828 215.447 112.988 215.079 113.308C214.711 113.62 214.483 114.04 214.395 114.568H218.403C218.315 114 218.091 113.568 217.731 113.272C217.371 112.976 216.951 112.828 216.471 112.828ZM221.703 113.008C222.047 112.264 222.671 111.892 223.575 111.892V112.984C223.063 112.96 222.623 113.096 222.255 113.392C221.887 113.688 221.703 114.164 221.703 114.82V118H220.659V112H221.703V113.008Z" fill="#CACACA"/>
<path d="M306.028 109.6H306.988V118H305.884V110.8L304.096 111.328L303.82 110.368L306.028 109.6ZM310.282 116.764L309.502 119.68H308.602L309.082 116.764H310.282ZM314.757 113.044C315.397 113.164 315.921 113.44 316.329 113.872C316.737 114.304 316.941 114.852 316.941 115.516C316.941 116.332 316.661 116.976 316.101 117.448C315.541 117.92 314.861 118.156 314.061 118.156C313.421 118.156 312.853 118.012 312.357 117.724C311.861 117.428 311.509 117.004 311.301 116.452L312.237 115.9C312.485 116.676 313.093 117.064 314.061 117.064C314.581 117.064 315.005 116.928 315.333 116.656C315.661 116.384 315.825 116.004 315.825 115.516C315.825 115.028 315.661 114.648 315.333 114.376C315.005 114.096 314.581 113.956 314.061 113.956H313.773L313.329 113.272L315.273 110.644H311.541V109.6H316.581V110.584L314.757 113.044ZM317.603 109.6H322.847V110.596L319.787 118H318.623L321.659 110.656H317.603V109.6ZM325.826 113.164C325.282 113.164 324.83 112.984 324.47 112.624C324.11 112.264 323.93 111.824 323.93 111.304C323.93 110.792 324.11 110.356 324.47 109.996C324.838 109.628 325.29 109.444 325.826 109.444C326.37 109.444 326.822 109.624 327.182 109.984C327.542 110.344 327.722 110.784 327.722 111.304C327.722 111.824 327.542 112.264 327.182 112.624C326.83 112.984 326.378 113.164 325.826 113.164ZM325.13 112.012C325.314 112.196 325.546 112.288 325.826 112.288C326.106 112.288 326.334 112.192 326.51 112C326.694 111.808 326.786 111.576 326.786 111.304C326.786 111.032 326.694 110.804 326.51 110.62C326.334 110.428 326.106 110.332 325.826 110.332C325.546 110.332 325.314 110.428 325.13 110.62C324.954 110.804 324.866 111.032 324.866 111.304C324.866 111.584 324.954 111.82 325.13 112.012ZM324.494 116.812L330.074 110.572L330.662 110.896L325.07 117.148L324.494 116.812ZM330.806 117.604C330.446 117.964 329.994 118.144 329.45 118.144C328.906 118.144 328.454 117.964 328.094 117.604C327.734 117.244 327.554 116.804 327.554 116.284C327.554 115.764 327.734 115.324 328.094 114.964C328.454 114.604 328.906 114.424 329.45 114.424C329.994 114.424 330.446 114.604 330.806 114.964C331.166 115.324 331.346 115.764 331.346 116.284C331.346 116.804 331.166 117.244 330.806 117.604ZM328.754 116.98C328.938 117.164 329.17 117.256 329.45 117.256C329.73 117.256 329.958 117.164 330.134 116.98C330.318 116.788 330.41 116.556 330.41 116.284C330.41 116.012 330.318 115.784 330.134 115.6C329.958 115.408 329.73 115.312 329.45 115.312C329.17 115.312 328.938 115.408 328.754 115.6C328.578 115.784 328.49 116.012 328.49 116.284C328.49 116.556 328.578 116.788 328.754 116.98Z" fill="#979797"/>
</svg>
